inDegrees=no
num_controls=7
num_derivatives=13
num_iterations=40
num_multipliers=7
num_parameters=0
num_slacks=7
num_states=26
objective=0.426402
objective_accelerations=0.057160
objective_balance=0.001152
objective_effort=0.015224
objective_height=0.346900
objective_ligament=0.005966
solver_duration=596.440282
status=Solve_Succeeded
success=true
DataType=double
version=3
OpenSimVersion=4.5
endheader
time	/jointset/ground_pelvis/pelvis_tilt/value	/jointset/ground_pelvis/pelvis_tx/value	/jointset/ground_pelvis/pelvis_ty/value	/jointset/hip_l/hip_flexion_l/value	/jointset/hip_l/hip_adduction_l/value	/jointset/hip_l/hip_rotation_l/value	/jointset/back/lumbar_extension/value	/jointset/patellofemoral_l/patellar_flexion_l/value	/jointset/knee_l/knee_flexion_l/value	/jointset/knee_l/knee_adduction_l/value	/jointset/knee_l/knee_rotation_l/value	/jointset/ankle_l/ankle_angle_l/value	/jointset/subtalar_l/subtalar_angle_l/value	/jointset/ground_pelvis/pelvis_tilt/speed	/jointset/ground_pelvis/pelvis_tx/speed	/jointset/ground_pelvis/pelvis_ty/speed	/jointset/hip_l/hip_flexion_l/speed	/jointset/hip_l/hip_adduction_l/speed	/jointset/hip_l/hip_rotation_l/speed	/jointset/back/lumbar_extension/speed	/jointset/patellofemoral_l/patellar_flexion_l/speed	/jointset/knee_l/knee_flexion_l/speed	/jointset/knee_l/knee_adduction_l/speed	/jointset/knee_l/knee_rotation_l/speed	/jointset/ankle_l/ankle_angle_l/speed	/jointset/subtalar_l/subtalar_angle_l/speed	/forceset/tau_hip_flexion_l	/forceset/tau_hip_adduction_l	/forceset/tau_hip_rotation_l	/forceset/tau_knee_flexion_l	/forceset/tau_ankle_angle_l	/forceset/tau_subtalar_angle_l	/forceset/tau_lumbar_extension	lambda_cid13_p0	lambda_cid13_p1	lambda_cid13_p2	lambda_cid13_p3	lambda_cid13_p4	lambda_cid13_p5	lambda_cid14_p0	/jointset/ground_pelvis/pelvis_tilt/accel	/jointset/ground_pelvis/pelvis_tx/accel	/jointset/ground_pelvis/pelvis_ty/accel	/jointset/hip_l/hip_flexion_l/accel	/jointset/hip_l/hip_adduction_l/accel	/jointset/hip_l/hip_rotation_l/accel	/jointset/back/lumbar_extension/accel	/jointset/patellofemoral_l/patellar_flexion_l/accel	/jointset/knee_l/knee_flexion_l/accel	/jointset/knee_l/knee_adduction_l/accel	/jointset/knee_l/knee_rotation_l/accel	/jointset/ankle_l/ankle_angle_l/accel	/jointset/subtalar_l/subtalar_angle_l/accel	gamma_cid13_p0	gamma_cid13_p1	gamma_cid13_p2	gamma_cid13_p3	gamma_cid13_p4	gamma_cid13_p5	gamma_cid14_p0
0	0.04789106697038444	0.1081383537241338	0.9028688986447349	0.1266922784136757	-0.3700436989397566	-0.2259907117287364	-0.2144969558742783	0.2051545070141956	0.2051545070141877	-0.1743311882514078	-0.1611142263397695	0.09024313228550125	0.07903494428286721	0	0	0	0	0	0	0	0	0	0	0	0	0	0.1130336176951874	-0.03443084460780567	-0.009862502596582839	-0.2454996238065373	0.1867445164423976	-0.1082887619400584	-0.04673599325727035	27.90414659893506	43.16374072553401	-8.327285532218195	-18.26872991256632	-439.9377805014887	-29.47849330647283	-26.27881762679745	-3.366864278732237	-1.096282053679094	-0.8351906070403017	11.51164301817692	0.000649423344925827	3.304505589500849	-3.541754404644476	10.58512272752953	10.58512272752904	2.594325465036645	-0.7554674635698813	3.508902230143701	1.013388175396873	2.156027642539573e-08	7.588766584138648e-07	-1.612691765575408e-07	6.269601789128783e-08	6.756103991059934e-09	3.050839667144971e-07	1.072419495201987e-07
0.01	0.04773140729702501	0.1080850704442331	0.9028283897164051	0.1272501645175867	-0.3700429447356275	-0.2258191361158492	-0.2146802607190849	0.2056719292999268	0.2056719292998854	-0.1742034407083048	-0.1611411617520558	0.09041647728723524	0.07908568573443618	-0.03170886018824611	-0.01053040686891751	-0.008080330720857589	0.1109329887234588	0.000112571025490276	0.0340468730008449	-0.03660916981534535	0.1031301820368375	0.1031301820368349	0.02538171103016543	-0.005507570504818386	0.03466166687788974	0.01010990665525933	0.1128953752468522	-0.04306957544339098	-0.009947299449151818	-0.2474413061303073	0.1883862746539101	-0.1009598076389966	-0.04628421516504089	28.87526442596376	39.83372409323028	-7.822641228661806	-19.84415037037085	-440.2516531565246	-36.57261397369607	-26.27848889968649	-3.03943342204704	-1.01247009836809	-0.7912347115941198	10.7874933407034	0.0107268467328053	3.414588146562116	-3.712728397602278	10.12380322847818	10.12380322847815	2.485036136557398	-0.4665194748358697	3.443722487665826	1.003933870920973	1.362544721478184e-08	9.76811496565687e-07	-1.837831425884697e-07	9.438291924713356e-08	-1.686787906016897e-07	3.748640966101603e-07	1.393406852548612e-07
0.02	0.04726135171513919	0.1079302730766685	0.9027077213994705	0.1288980538169485	-0.3700422316403247	-0.2253151297747014	-0.2152281032875765	0.2072100208632773	0.2072100208632784	-0.1738268876119933	-0.1612267963957249	0.09093622367196025	0.07923635464462407	-0.06207918170350624	-0.02030281753277702	-0.01603187772095788	0.218000639097841	-8.221765756597564e-06	0.06648614564911549	-0.07290754473556696	0.2041338555423708	0.204133855542369	0.04976111064236149	-0.01173984624555456	0.06928027659794793	0.01998549172373474	0.1127571327981086	-0.05170830627896976	-0.0100320963009647	-0.249382988454369	0.1900280328653751	-0.09363085333795133	-0.04583243707311988	29.89375639295767	36.51350635447118	-7.340230018128098	-21.46813755919792	-439.6943854266129	-43.46743686666306	-26.27751334788678	-3.099156544134764	-0.9446828126677657	-0.8094338628888308	10.73857534836165	-0.0460233400024991	2.982985518985983	-3.479595425619602	10.15982102126875	10.15982102126891	2.39386318144279	-0.9004085107534892	3.500290798577081	0.9665238580399926	5.69061800416795e-09	1.194746334717509e-06	-2.062971086193986e-07	1.260698206029793e-07	-3.441136851944393e-07	4.446442265058234e-07	1.714394209895237e-07
0.03	0.04649158227447157	0.1076803835621543	0.9025077846133666	0.1316012895497461	-0.3700438170450827	-0.2244952543244157	-0.2161327840002668	0.2097466766190704	0.2097466766191383	-0.1732118591592479	-0.1613783541381936	0.09179961756839412	0.07948403585484964	-0.0918823912927924	-0.02966342514723049	-0.02396693096513767	0.3223378972653286	-0.0003374805119681813	0.09739735302650333	-0.1075590393910151	0.3026918084387876	0.3026918084387851	0.07302313404973769	-0.01845368813228838	0.1031482119799558	0.02945083033294541	0.1082872617855545	-0.04679890984811246	-0.008910493493111023	-0.2434699006390274	0.1818346316534975	-0.09465610885711252	-0.04247583022869202	27.18497606793743	37.2328020557425	-7.226158516792846	-19.46694776070334	-439.6875193614845	-41.10145908553978	-26.27587781462566	-2.922045270851635	-0.9299753611395919	-0.7873283065066465	10.23501343833741	-0.03081401209072398	3.131515730812487	-3.387492723390918	9.627924928214139	9.627924928214069	2.259333868404948	-0.53923065790253	3.292538108937196	0.9213869474102514	-1.825486596458893e-09	1.321181070243035e-06	-1.651301074451153e-07	1.47320421336053e-07	-4.64970919609739e-07	4.168274785643845e-07	1.871367593237455e-07
0.04	0.04542355231699378	0.1073372428464338	0.9022281398445566	0.1353386403416778	-0.3700495824113299	-0.2233690013236029	-0.21736989290709	0.2132537404048075	0.2132537404048102	-0.1723708180827344	-0.1615935220254116	0.09299418945883772	0.07982334006817733	-0.1217312850630849	-0.03895305777402753	-0.03197347426215615	0.4248236509286207	-0.0008442140645817037	0.1277616557517912	-0.1393931835617722	0.3982154615106447	0.3982154615106444	0.09496363537790596	-0.02446187522979923	0.1355158753989419	0.03831009234409803	0.1038173907728425	-0.04188951341730835	-0.007788890686144089	-0.2375568128236593	0.1736412304415765	-0.09568136437633203	-0.03911922338434258	24.51971614178539	37.96300808735544	-7.134994964853815	-17.51043029966481	-438.8753807299651	-38.54489810337108	-26.27284016943864	-3.108293380335783	-0.9304878151367364	-0.8237318734565575	10.36827444752257	-0.08151830128287815	2.873604588565989	-2.916125328681276	9.55296105635683	9.552961056357576	2.129558765601252	-0.7592775529089423	3.20023640597244	0.8453085384283073	-9.332957699972603e-09	1.44572920571441e-06	-1.226500966377348e-07	1.68355840612987e-07	-5.847028414440604e-07	3.869984238634176e-07	2.024959245156901e-07
0.05	0.044058776472189	0.1069017461597047	0.9018680443072259	0.140089699783999	-0.3700605979862875	-0.2219433939939226	-0.2189144940610117	0.2177017550269297	0.217701755026931	-0.1713154669465157	-0.1618664730984459	0.09450587217148382	0.08024929682222225	-0.1509732877026836	-0.04811326967217056	-0.04004990093217371	0.5247780556296586	-0.001314306691467946	0.1572408981816597	-0.1694442526849279	0.4908781075962083	0.4908781075962101	0.1160151774615531	-0.02997772330735627	0.1666392849017017	0.046884378102335	0.1001214897764259	-0.03997714178710256	-0.006800671370359178	-0.2338577633420945	0.1678930054840207	-0.09444826310950631	-0.03642941556543833	22.77675451752978	37.62850569723393	-6.962704925487481	-16.43839054143229	-438.1382134063072	-38.35659780131827	-26.26747025593746	-2.794548318454849	-0.9038025517221834	-0.8003561310636241	9.717501512513604	-0.02326310321912746	2.967309447612405	-3.037178523131083	9.046472463896965	9.046472463896841	2.079473202979958	-0.4251981827037623	3.04123231180653	0.8637429978542309	-8.015706412999457e-09	1.532174482798496e-06	-1.892718343714829e-07	1.81642987632498e-07	-6.530066431670595e-07	4.673680096357199e-07	2.221923761752486e-07
0.06	0.04240910167843877	0.1063756444190797	0.9014270328897372	0.1458219988795479	-0.370075016159479	-0.2202265491644557	-0.2207571220699653	0.2230611073257505	0.2230611073257536	-0.1700522961347901	-0.1621900746017722	0.09632335679703638	0.08076104731451635	-0.1787110748495533	-0.05707406855318687	-0.04815665029371993	0.6210715815754707	-0.001524733711453853	0.1860091557081318	-0.1989985545679885	0.5804829968514038	0.5804829968514031	0.136527570474538	-0.03459196128590059	0.1966762579796076	0.05546883999388267	0.09642558878003102	-0.03806477015692804	-0.00581245205449486	-0.2301587138605585	0.1621447805264473	-0.09321516184272027	-0.03373960774649486	21.07301257633218	37.30305494556687	-6.810042774521959	-15.40255157134572	-436.6785390551292	-37.99457109306845	-26.25840651523487	-2.807450281789746	-0.8906052117116314	-0.829796411762277	9.636098696477458	-0.0295851799027893	2.731407607886697	-2.816771880662116	8.941409690283287	8.94140969028305	2.021728951468857	-0.5789555331064431	2.982949121001387	0.8473437650903859	-6.326887867479496e-09	1.617015429003117e-06	-2.604873299385415e-07	1.946038916095911e-07	-7.191450503590554e-07	5.523775381647914e-07	2.42071450422917e-07
0.07000000000000001	0.04048667173381915	0.1057610450108613	0.9009043561051934	0.1525025225950742	-0.3700907149874211	-0.2182273472762513	-0.222889422386774	0.2293025679952002	0.2293025679952017	-0.1685873959538229	-0.1625575673004203	0.09843598034996445	0.08135828930027829	-0.2057490479640647	-0.06579863127466859	-0.05641778698683925	0.7146596045367878	-0.0016179427741689	0.2136862049858145	-0.2271069404949328	0.6673285864551917	0.6673285864551909	0.156260508442971	-0.03880340761246363	0.2256573644694302	0.06393080814147446	0.09270307538469656	-0.03610002113836496	-0.004816213142923182	-0.2272427778632068	0.1573363564216726	-0.09191479176584003	-0.03095535414147401	19.65755249856195	36.93869174313001	-6.697754199242949	-14.64458441952024	-435.58139173378	-37.72267559121826	-26.24428455177474	-2.648069838526482	-0.8562654527200927	-0.830278984505344	9.164128732806502	0.0001818442972226879	2.764190571524721	-2.754686703491739	8.484002352883431	8.484002352883561	1.920527107389192	-0.3268412857099898	2.827078901514324	0.83808777932318	-8.421864107607483e-09	1.405829878441274e-06	-2.956445953542228e-07	1.806898296490031e-07	-7.158592455671229e-07	5.365696723235506e-07	2.217564256727301e-07
